<?xml version="1.0" standalone="no"?><!DOCTYPE svg PUBLIC "-//W3C//DTD SVG 1.1//EN" "http://www.w3.org/Graphics/SVG/1.1/DTD/svg11.dtd"><svg t="1774806171187" class="icon" viewBox="0 0 1024 1024" version="1.1" xmlns="http://www.w3.org/2000/svg" p-id="1865" xmlns:xlink="http://www.w3.org/1999/xlink" width="64" height="64"><path d="M123.448889 88.234667c5.688889 0 11.093333 2.446222 15.075555 6.712889s6.257778 10.126222 6.257778 16.156444v796.046222c0 6.087111-2.275556 11.889778-6.257778 16.156445a20.650667 20.650667 0 0 1-15.075555 6.712889h-30.151111a20.650667 20.650667 0 0 1-15.075556-6.712889 23.722667 23.722667 0 0 1-6.257778-16.156445V111.104c0-6.030222 2.275556-11.889778 6.257778-16.156444a20.650667 20.650667 0 0 1 15.075556-6.712889h30.151111z m794.624 0c5.688889 0 11.093333 2.446222 15.075555 6.712889s6.257778 10.126222 6.257778 16.156444v796.046222c0 6.087111-2.275556 11.889778-6.257778 16.156445a20.650667 20.650667 0 0 1-15.075555 6.712889h-28.330667a20.650667 20.650667 0 0 1-15.075555-6.712889 23.722667 23.722667 0 0 1-6.257778-16.156445V111.104c0-6.030222 2.275556-11.889778 6.257778-16.156444a20.650667 20.650667 0 0 1 15.075555-6.712889h28.330667z m-415.402667 113.777777a256 256 0 0 1 0 512h-42.666666v86.300445c0 5.916444-1.706667 11.662222-5.006223 16.554667l-1.706666 2.389333a29.866667 29.866667 0 0 1-39.594667 5.973333l-2.503111-1.763555-157.582222-128.967111a29.866667 29.866667 0 0 1-2.275556-44.202667l2.275556-2.048 157.582222-128.967111a29.866667 29.866667 0 0 1 48.696889 20.252444l0.113778 2.844445v86.300444h42.666666a170.666667 170.666667 0 1 0 0-341.333333H310.670222a21.333333 21.333333 0 0 1-21.333333-21.333334v-42.666666a21.333333 21.333333 0 0 1 21.333333-21.333334h192z" fill="#2c2c2c" p-id="1866"></path></svg>