<?xml version="1.0" standalone="no"?><!DOCTYPE svg PUBLIC "-//W3C//DTD SVG 1.1//EN" "http://www.w3.org/Graphics/SVG/1.1/DTD/svg11.dtd"><svg t="1774809389811" class="icon" viewBox="0 0 1024 1024" version="1.1" xmlns="http://www.w3.org/2000/svg" p-id="1985" xmlns:xlink="http://www.w3.org/1999/xlink" width="64" height="64"><path d="M237.98857156 943.31428531c20.88 0 32.93142844-10.45714312 73.52571375-51.01714218L506.37714312 697.82857156c2.00571469-1.61142844 4.01142844-3.22285688 5.62285688-3.22285687 2.00571469 0 3.6 1.61142844 5.62285688 3.22285687l195.25714312 194.46857156c39.78857156 39.77142844 52.64571469 51.01714313 73.13142844 51.01714219 25.32 0 44.60571469-15.25714313 44.60571468-51.82285687V206.44571469c0-83.57142844-41.38285688-125.76-124.55999999-125.76H317.94285688c-82.76571469 0-124.56 42.17142844-124.56 125.76v685.02857062c0 36.58285688 19.69714313 51.84 44.60571468 51.84z m30.12-97.62857062c-5.62285688 5.62285688-10.02857156 4.01142844-10.02857156-3.61714313V207.64571469c0-40.18285687 21.68571469-62.28 63.48-62.28h381.29142844c41.77714313 0 63.08571469 22.11428531 63.08571468 62.28v634.42285687c0 7.62857156-4.42285687 8.84571469-10.06285781 3.6L532.09142844 624.32c-6.84-7.23428531-14.05714313-9.25714312-20.09142844-9.25714312-5.62285688 0-12.85714313 2.02285687-20.09142844 9.25714312z" fill="#2c2c2c" p-id="1986"></path></svg>