<?xml version="1.0" standalone="no"?><!DOCTYPE svg PUBLIC "-//W3C//DTD SVG 1.1//EN" "http://www.w3.org/Graphics/SVG/1.1/DTD/svg11.dtd"><svg t="1774705576234" class="icon" viewBox="0 0 1024 1024" version="1.1" xmlns="http://www.w3.org/2000/svg" p-id="3219" xmlns:xlink="http://www.w3.org/1999/xlink" width="64" height="64"><path d="M90.12500001 511.1C90.125 290.2625 259.55 109.15625 475.34375 90.125A39.375 39.375 0 0 1 498.875 159.5c-0.3375 0.225-0.1125 0.54375 0.7875 0.54375a255.28125 255.28125 0 0 0-80.71875 186.50625001 258.31875 258.31875 0 0 0 258.375 258.41249999A255.225 255.225 0 0 0 864.5 523.45625c0.1125 0.1125 0.1125 0.56249999 0.3375 0.3375A39.76875 39.76875 0 0 1 933.875 548.825C914.675 764.50625 733.68125 933.87499999 512.84375 933.875 279.3125 933.87499999 90.125 744.63125 90.12500001 511.1z m0 0" fill="#2c2c2c" p-id="3220"></path></svg>