<?xml version="1.0" standalone="no"?><!DOCTYPE svg PUBLIC "-//W3C//DTD SVG 1.1//EN" "http://www.w3.org/Graphics/SVG/1.1/DTD/svg11.dtd"><svg t="1774788688832" class="icon" viewBox="0 0 1024 1024" version="1.1" xmlns="http://www.w3.org/2000/svg" p-id="1805" xmlns:xlink="http://www.w3.org/1999/xlink" width="64" height="64"><path d="M64.21 175.79v672.63c0 15.49 12.56 28.04 28.04 28.04h839.03c15.49 0 28.04-12.56 28.04-28.04V175.79c0-15.49-12.55-28.04-28.04-28.04H92.26c-15.49 0-28.05 12.55-28.05 28.04z m56.09 28.05h782.95v111.67H120.3V203.84z m0 167.76h782.95v448.78H120.3V371.6z m55.39-140.42c-7.43 0.02-14.56 2.97-19.83 8.21a28.239 28.239 0 0 0-8.21 19.83c0.02 7.43 2.97 14.56 8.21 19.83 5.27 5.24 12.4 8.2 19.83 8.22 7.38 0 14.61-3 19.83-8.22a28.23 28.23 0 0 0 8.22-19.83c0-7.38-2.99-14.61-8.22-19.83a28.257 28.257 0 0 0-19.83-8.21z m83.91 0c-7.43 0.02-14.56 2.97-19.83 8.21a28.239 28.239 0 0 0-8.21 19.83c0.02 7.43 2.97 14.56 8.21 19.83 5.27 5.24 12.4 8.2 19.83 8.22 7.43-0.02 14.56-2.98 19.83-8.22a28.23 28.23 0 0 0 8.22-19.83 28.206 28.206 0 0 0-8.22-19.83 28.239 28.239 0 0 0-19.83-8.21z m84.35 0c-7.43 0.02-14.56 2.97-19.83 8.21a28.239 28.239 0 0 0-8.21 19.83c0.02 7.43 2.97 14.56 8.21 19.83 5.27 5.24 12.4 8.2 19.83 8.22 7.43-0.02 14.56-2.98 19.83-8.22a28.23 28.23 0 0 0 8.22-19.83c0-7.38-3-14.61-8.22-19.83a28.257 28.257 0 0 0-19.83-8.21zM607.1 399.99c-14.1-6.41-30.73-0.17-37.13 13.93L403.46 756.77c-6.41 14.1-0.17 30.72 13.93 37.13 3.64 1.66 7.59 2.52 11.59 2.52 10.66 0 20.85-6.11 25.55-16.45l166.51-342.85c6.39-14.1 0.16-30.72-13.94-37.13zM268.54 590.63l93.8-109.43c10.08-11.76 8.72-29.46-3.04-39.54-11.76-10.08-29.46-8.72-39.54 3.04L210.31 572.38c-9 10.5-9 26 0 36.5l109.44 127.68a27.945 27.945 0 0 0 21.31 9.79c6.69 0.01 13.16-2.39 18.24-6.75 11.76-10.08 13.12-27.79 3.04-39.54l-93.8-109.43z m435.23-145.92c-10.08-11.76-27.79-13.12-39.55-3.04-11.76 10.08-13.12 27.78-3.05 39.54l93.8 109.43-93.8 109.43c-10.07 11.76-8.72 29.46 3.05 39.54a27.908 27.908 0 0 0 18.24 6.75c8.19 0.01 15.98-3.57 21.31-9.8l109.44-127.68c9-10.5 9-26 0-36.5L703.77 444.71z" fill="#2c2c2c" p-id="1806"></path></svg>