<?xml version="1.0" standalone="no"?><!DOCTYPE svg PUBLIC "-//W3C//DTD SVG 1.1//EN" "http://www.w3.org/Graphics/SVG/1.1/DTD/svg11.dtd"><svg t="1774705585232" class="icon" viewBox="0 0 1024 1024" version="1.1" xmlns="http://www.w3.org/2000/svg" p-id="3847" xmlns:xlink="http://www.w3.org/1999/xlink" width="64" height="64"><path d="M813.21875001 88.4375a41.90625001 41.90625001 0 0 0-59.62500002 0L433.25 408.78124999c-5.0625 4.78125001-8.4375 10.96875001-10.6875 17.71875001l-52.3125 174.65625001c-4.5 14.90625001-0.28125001 30.9375 10.6875 41.90624999 7.875 8.15625001 18.84375001 12.375 29.8125 12.375 3.9375 0 8.15625001-0.5625 12.09375001-1.6875l174.65624999-52.3125c6.75-2.25 12.9375-5.625 17.71875001-10.6875L935.5625 270.40624999a42.13125001 42.13125001 0 0 0 0-59.62499998L813.21875001 88.4375z" fill="#2c2c2c" p-id="3848"></path><path d="M905.75 469.8125a42.1875 42.1875 0 0 0-42.1875 42.1875v281.25c0 38.784375-31.55625001 70.3125-70.3125 70.3125H230.75A70.396875 70.396875 0 0 1 160.4375 793.25V230.75c0-38.784375 31.55625001-70.3125 70.3125-70.3125h281.25a42.1875 42.1875 0 0 0 0-84.375H230.75A154.884375 154.884375 0 0 0 76.0625 230.75v562.5c0 85.275 69.384375 154.6875 154.6875 154.6875h562.5c85.303125 0 154.6875-69.4125 154.6875-154.6875V512a42.1875 42.1875 0 0 0-42.1875-42.1875z" fill="#2c2c2c" p-id="3849"></path></svg>