<?xml version="1.0" standalone="no"?><!DOCTYPE svg PUBLIC "-//W3C//DTD SVG 1.1//EN" "http://www.w3.org/Graphics/SVG/1.1/DTD/svg11.dtd"><svg t="1774705606575" class="icon" viewBox="0 0 1024 1024" version="1.1" xmlns="http://www.w3.org/2000/svg" p-id="5415" xmlns:xlink="http://www.w3.org/1999/xlink" width="64" height="64"><path d="M936.10666667 877.33333333L659.09333333 600.32C702.08 544.74666667 725.33333333 476.8 725.33333333 405.33333333c0-85.54666667-33.38666667-165.76-93.76-226.24-60.37333333-60.48-140.8-93.76-226.24-93.76s-165.86666667 33.38666667-226.24 93.76C118.61333333 239.46666667 85.33333333 319.78666667 85.33333333 405.33333333c0 85.44 33.38666667 165.86666667 93.76 226.24C239.46666667 692.05333333 319.78666667 725.33333333 405.33333333 725.33333333c71.46666667 0 139.30666667-23.25333333 194.88-66.13333333l277.01333334 276.90666667c3.41333333 3.41333333 8.96 3.41333333 12.37333333 0l46.50666667-46.4c3.41333333-3.41333333 3.41333333-8.96 0-12.37333334zM574.29333333 574.29333333C529.06666667 619.41333333 469.12 644.26666667 405.33333333 644.26666667s-123.73333333-24.85333333-168.96-69.97333334C191.25333333 529.06666667 166.4 469.12 166.4 405.33333333s24.85333333-123.84 69.97333333-168.96C281.6 191.25333333 341.54666667 166.4 405.33333333 166.4s123.84 24.74666667 168.96 69.97333333S644.26666667 341.54666667 644.26666667 405.33333333s-24.85333333 123.84-69.97333334 168.96z" fill="#2c2c2c" p-id="5416"></path></svg>