<?xml version="1.0" standalone="no"?><!DOCTYPE svg PUBLIC "-//W3C//DTD SVG 1.1//EN" "http://www.w3.org/Graphics/SVG/1.1/DTD/svg11.dtd"><svg t="1774971002128" class="icon" viewBox="0 0 1024 1024" version="1.1" xmlns="http://www.w3.org/2000/svg" p-id="2193" xmlns:xlink="http://www.w3.org/1999/xlink" width="64" height="64"><path d="M399.01108148 67.9814637H139.35502222a71.36020859 71.36020859 0 0 0-50.48699259 20.88656593 71.25947733 71.25947733 0 0 0-20.88656593 50.47485629v259.64392297a71.31044978 71.31044978 0 0 0 71.36142222 71.36142222h259.64392297a71.31044978 71.31044978 0 0 0 71.36142222-71.36142222V139.35502222c0.0121363-18.93262222-7.50023111-37.08852148-20.88656593-50.4748563a71.22428208 71.22428208 0 0 0-50.4505837-20.89870222zM935.13197037 88.88016592a71.25947733 71.25947733 0 0 0-50.47485629-20.88656592H625.00105482a71.31044978 71.31044978 0 0 0-71.36142223 71.36142222v259.64392296a71.31044978 71.31044978 0 0 0 71.36142223 71.36142223h259.63178666c18.93262222 0.0121363 37.08852148-7.50023111 50.4748563-20.88656593a71.32258608 71.32258608 0 0 0 20.89870222-50.4748563V139.35502222c0.02427259-18.93262222-7.48809482-37.08852148-20.87442963-50.4748563zM398.99894518 553.63963259l0.0121363-0.01213629H139.35502222a71.36020859 71.36020859 0 0 0-50.48699259 20.88656592 71.25947733 71.25947733 0 0 0-20.88656593 50.4748563v259.64392296a71.36020859 71.36020859 0 0 0 20.88656593 50.4869926 71.25947733 71.25947733 0 0 0 50.47485629 20.88656592h259.64392297a71.31044978 71.31044978 0 0 0 71.36142222-71.36142222V625.00105482c0.0121363-18.93262222-7.50023111-37.08852148-20.88656593-50.4748563a71.26190459 71.26190459 0 0 0-50.46272-20.88656593zM884.65711408 553.63963259v-0.01213629H625.00105482a71.31044978 71.31044978 0 0 0-71.36142223 71.36142222v259.64392296a71.34928592 71.34928592 0 0 0 20.87442963 50.4748563 71.32258608 71.32258608 0 0 0 50.4748563 20.89870222h259.65605926c18.93262222 0.0121363 37.08852148-7.50023111 50.48699259-20.88656592a71.25947733 71.25947733 0 0 0 20.88656593-50.4748563V625.00105482a71.31044978 71.31044978 0 0 0-71.36142222-71.36142223z" fill="#2c2c2c" p-id="2194"></path></svg>