<?xml version="1.0" standalone="no"?><!DOCTYPE svg PUBLIC "-//W3C//DTD SVG 1.1//EN" "http://www.w3.org/Graphics/SVG/1.1/DTD/svg11.dtd"><svg t="1774705587667" class="icon" viewBox="0 0 1024 1024" version="1.1" xmlns="http://www.w3.org/2000/svg" p-id="4006" xmlns:xlink="http://www.w3.org/1999/xlink" width="64" height="64"><path d="M512 62C263.6 62 62 263.6 62 512s201.6 450 450 450 450-201.6 450-450S760.4 62 512 62z m54.9 680.4c0 24.3-19.8 44.1-44.1 44.1h-22.05c-24.3 0-44.1-19.8-44.1-44.1V479.15c0-24.3 19.8-44.1 44.1-44.1h22.05c24.3 0 44.1 19.8 44.1 44.1v263.25zM512 369.35c-30.15 0-54.9-24.75-54.9-54.9 0-30.15 24.75-54.9 54.9-54.9s54.9 24.75 54.9 54.9c0 30.15-24.75 54.9-54.9 54.9z" fill="#2c2c2c" p-id="4007"></path></svg>