<?xml version="1.0" standalone="no"?><!DOCTYPE svg PUBLIC "-//W3C//DTD SVG 1.1//EN" "http://www.w3.org/Graphics/SVG/1.1/DTD/svg11.dtd"><svg t="1774705573778" class="icon" viewBox="0 0 1024 1024" version="1.1" xmlns="http://www.w3.org/2000/svg" p-id="3065" xmlns:xlink="http://www.w3.org/1999/xlink" width="64" height="64"><path d="M512 312.00000031c-110.4 0-199.99999969 89.59999969-199.99999969 199.99999969s89.59999969 199.99999969 199.99999969 199.99999969 199.99999969-89.59999969 199.99999969-199.99999969-89.59999969-199.99999969-199.99999969-199.99999969zM111.99999969 552.00000031h80.00000062c22.00000031 0 40.00000031-18 39.99999938-40.00000031s-18-40.00000031-39.99999938-40.00000031H111.99999969c-22.00000031 0-40.00000031 18-39.99999938 40.00000031s18 40.00000031 39.99999938 40.00000031z m720 0h80.00000062c22.00000031 0 40.00000031-18 39.99999938-40.00000031s-18-40.00000031-39.99999938-40.00000031h-80.00000062c-22.00000031 0-40.00000031 18-39.99999938 40.00000031s18 40.00000031 39.99999938 40.00000031zM471.99999969 111.99999969v80.00000062c0 22.00000031 18 40.00000031 40.00000031 39.99999938s40.00000031-18 40.00000031-39.99999938V111.99999969c0-22.00000031-18-40.00000031-40.00000031-39.99999938s-40.00000031 18-40.00000031 39.99999938z m0 720v80.00000062c0 22.00000031 18 40.00000031 40.00000031 39.99999938s40.00000031-18 40.00000031-39.99999938v-80.00000062c0-22.00000031-18-40.00000031-40.00000031-39.99999938s-40.00000031 18-40.00000031 39.99999938zM271.59999969 215.19999969a39.84 39.84 0 0 0-56.4 0 39.84 39.84 0 0 0 0 56.4l42.40000031 42.40000031c15.6 15.6 41.20000031 15.6 56.4 0s15.6-41.20000031 0-56.4L271.59999969 215.19999969z m494.80000031 494.80000031a39.84 39.84 0 0 0-56.4 0 39.84 39.84 0 0 0 0 56.4l42.40000031 42.40000031c15.6 15.6 41.20000031 15.6 56.4 0a39.84 39.84 0 0 0 0-56.4l-42.40000031-42.40000031z m42.40000031-438.40000031a39.84 39.84 0 0 0 0-56.4 39.84 39.84 0 0 0-56.4 0l-42.40000031 42.40000031c-15.6 15.6-15.6 41.20000031 0 56.4s41.20000031 15.6 56.4 0l42.40000031-42.40000031zM314 766.4a39.84 39.84 0 0 0 0-56.4 39.84 39.84 0 0 0-56.4 0l-42.40000031 42.40000031c-15.6 15.6-15.6 41.20000031 0 56.4s41.20000031 15.6 56.4 0l42.40000031-42.40000031z" fill="#2c2c2c" p-id="3066"></path></svg>