<?xml version="1.0" standalone="no"?><!DOCTYPE svg PUBLIC "-//W3C//DTD SVG 1.1//EN" "http://www.w3.org/Graphics/SVG/1.1/DTD/svg11.dtd"><svg t="1774705565729" class="icon" viewBox="0 0 1024 1024" version="1.1" xmlns="http://www.w3.org/2000/svg" p-id="2590" xmlns:xlink="http://www.w3.org/1999/xlink" width="64" height="64"><path d="M512 408.43693868c-56.95968355 0-103.56306132 46.60337778-103.56306132 103.56306132s46.60337778 103.56306132 103.56306132 103.56306132 103.56306132-46.60337778 103.56306132-103.56306132-46.60337778-103.56306132-103.56306132-103.56306132z m0-310.68918519c-56.95968355 0-103.56306132 46.60337778-103.56306132 103.56306133s46.60337778 103.56306132 103.56306132 103.56306132 103.56306132-46.60337778 103.56306132-103.56306132-46.60337778-103.56306132-103.56306132-103.56306133z m0 621.37837037c-56.95968355 0-103.56306132 46.60337778-103.56306132 103.56306132s46.60337778 103.56306132 103.56306132 103.56306133 103.56306132-46.60337778 103.56306132-103.56306133-46.60337778-103.56306132-103.56306132-103.56306132z" fill="#2c2c2c" p-id="2591"></path></svg>