<?xml version="1.0" standalone="no"?><!DOCTYPE svg PUBLIC "-//W3C//DTD SVG 1.1//EN" "http://www.w3.org/Graphics/SVG/1.1/DTD/svg11.dtd"><svg t="1774705608800" class="icon" viewBox="0 0 1024 1024" version="1.1" xmlns="http://www.w3.org/2000/svg" p-id="5573" xmlns:xlink="http://www.w3.org/1999/xlink" width="64" height="64"><path d="M830.57777813 72.05925973a121.3629632 121.3629632 0 0 1 121.36296214 121.36296214v637.15555626a121.3629632 121.3629632 0 0 1-121.36296214 121.36296214H193.42222187a121.3629632 121.3629632 0 0 1-121.36296214-121.36296214V193.42222187a121.3629632 121.3629632 0 0 1 121.36296214-121.36296214h637.15555626z m0 60.68148054H193.42222187a60.6814816 60.6814816 0 0 0-60.6814816 60.6814816v637.15555626a60.6814816 60.6814816 0 0 0 60.6814816 60.6814816h637.15555626a60.6814816 60.6814816 0 0 0 60.6814816-60.6814816V193.42222187a60.6814816 60.6814816 0 0 0-60.6814816-60.6814816z" fill="#2c2c2c" p-id="5574"></path><path d="M694.0444448 481.65925973a30.34074027 30.34074027 0 1 1 0 60.68148054H329.9555552a30.34074027 30.34074027 0 0 1 0-60.68148054h364.0888896z" fill="#2c2c2c" p-id="5575"></path><path d="M512 299.61481493a30.34074027 30.34074027 0 0 1 30.34074027 30.34074027v364.0888896a30.34074027 30.34074027 0 1 1-60.68148054 0V329.9555552a30.34074027 30.34074027 0 0 1 30.34074027-30.34074027z" fill="#2c2c2c" p-id="5576"></path></svg>