<?xml version="1.0" standalone="no"?><!DOCTYPE svg PUBLIC "-//W3C//DTD SVG 1.1//EN" "http://www.w3.org/Graphics/SVG/1.1/DTD/svg11.dtd"><svg t="1774705562565" class="icon" viewBox="0 0 1024 1024" version="1.1" xmlns="http://www.w3.org/2000/svg" p-id="2418" xmlns:xlink="http://www.w3.org/1999/xlink" width="64" height="64"><path d="M547.6 618.4c10.1 7.2 20.4 13.5 31.2 18.9 11.6 5.9 23.5 10.8 35.6 14.6 94.5 30.2 201.8-0.6 265-84.3 58.1-77.1 62.8-177.9 20.3-257.8-0.1-0.1-0.1-0.2-0.2-0.3-4.4-8.4-9.4-16.5-14.9-24.3-0.3-0.4-0.6-0.9-0.9-1.3-26.1-39.4-59.3-75.1-99.2-105.2C595 35.8 325.7 73.5 182.8 262.9 40 452.3 77.7 721.7 267.1 864.6c35.4 26.7 73.7 47.2 113.4 61.4 0.4 0.1 0.7 0.3 1.1 0.4 0.7 0.3 1.4 0.5 2.1 0.7 0.3 0.1 0.6 0.2 1 0.3 35.6 11.8 76.4 0.4 100.2-31.3 22-29.2 23.6-67.4 7.1-97.5-5-9.2-11.7-17.6-20.1-24.8-1.5-1.3-3.1-2.6-4.7-3.8-1.8-1.3-3.6-2.6-5.5-3.8-34.2-29.7-40-81.2-12.3-118 23.4-30.9 63.4-41.9 98.2-29.8z m-283 6.2c-38.2-28.8-45.9-83.2-17-121.4 28.8-38.2 83.2-45.9 121.4-17 38.2 28.8 45.9 83.2 17 121.4-28.8 38.2-83.2 45.8-121.4 17z" fill="#FDF17F" p-id="2419"></path><path d="M365.2 816.8m-58.4 0a58.4 58.4 0 1 0 116.8 0 58.4 58.4 0 1 0-116.8 0Z" fill="#F65D73" p-id="2420"></path><path d="M365.2 284.4m-58.4 0a58.4 58.4 0 1 0 116.8 0 58.4 58.4 0 1 0-116.8 0Z" fill="#50E6CC" p-id="2421"></path><path d="M590.4 226m-58.4 0a58.4 58.4 0 1 0 116.8 0 58.4 58.4 0 1 0-116.8 0Z" fill="#46CDFB" p-id="2422"></path><path d="M766.8 351m-58.4 0a58.4 58.4 0 1 0 116.8 0 58.4 58.4 0 1 0-116.8 0Z" fill="#BD9EE2" p-id="2423"></path><path d="M681.9 522m-58.4 0a58.4 58.4 0 1 0 116.8 0 58.4 58.4 0 1 0-116.8 0Z" fill="#EB866B" p-id="2424"></path><path d="M899.6 309.8c-0.1-0.1-0.1-0.2-0.2-0.3-4.4-8.4-9.4-16.5-14.9-24.3-0.3-0.4-0.6-0.9-0.9-1.3-26.1-39.4-59.3-75.1-99.2-105.2-87.1-65.7-191-93.2-291.9-85.3 78.9 6.1 157.1 34.1 225 85.3 39.9 30.1 73.1 65.8 99.2 105.2 0.3 0.4 0.6 0.9 0.9 1.3 5.5 7.8 10.5 15.9 14.9 24.3 0.1 0.1 0.1 0.2 0.2 0.3 42.5 80 37.8 180.7-20.3 257.8-40 53-97.7 84.8-158.6 93.3 83.6 11.7 171-21.1 225.5-93.3 58.2-77.1 62.9-177.9 20.3-257.8zM492 798.7c-5-9.2-11.7-17.6-20.1-24.8-1.5-1.3-3.1-2.6-4.7-3.8-1.8-1.4-3.6-2.6-5.5-3.9-34.2-29.7-40-81.2-12.3-118 9.3-12.4 21.4-21.6 34.7-27.4-1.2-0.8-2.3-1.6-3.5-2.4-34.8-12.1-74.8-1.1-98.1 29.8-27.7 36.7-21.9 88.3 12.3 118 1.9 1.2 3.7 2.5 5.5 3.9 1.6 1.2 3.2 2.5 4.8 3.8 8.3 7.2 15 15.6 20.1 24.8 16.4 30.1 14.9 68.3-7.1 97.5-10.3 13.7-23.7 23.5-38.5 29.4 0.3 0.1 0.7 0.2 1 0.4 0.4 0.1 0.7 0.3 1.1 0.4 0.7 0.3 1.4 0.5 2.1 0.8 0.3 0.1 0.6 0.2 1 0.3 35.6 11.8 76.4 0.4 100.2-31.3 21.9-29.2 23.5-67.4 7-97.5z" fill="#FAD672" p-id="2425"></path><path d="M423.6 816.8c0 32.2-26.1 58.4-58.4 58.4-7 0-13.8-1.2-20-3.5 22.4-8.2 38.4-29.7 38.4-54.9s-16-46.7-38.4-54.9c6.2-2.3 13-3.5 20-3.5 32.3 0 58.4 26.1 58.4 58.4z" fill="#F04B69" p-id="2426"></path><path d="M423.5 284.4c0 32.2-26.1 58.4-58.4 58.4-7 0-13.8-1.2-20-3.5 22.4-8.2 38.4-29.7 38.4-54.9s-16-46.7-38.4-54.9c6.2-2.3 13-3.5 20-3.5 32.3 0 58.4 26.2 58.4 58.4z" fill="#45DABD" p-id="2427"></path><path d="M648.8 226c0 32.2-26.1 58.4-58.4 58.4-7 0-13.8-1.2-20-3.5 22.4-8.2 38.4-29.6 38.4-54.9 0-25.2-16-46.7-38.4-54.9 6.2-2.3 13-3.5 20-3.5 32.2 0.1 58.4 26.2 58.4 58.4z" fill="#15B7FF" p-id="2428"></path><path d="M825.2 351c0 32.2-26.1 58.4-58.4 58.4-7 0-13.8-1.2-20-3.5 22.4-8.2 38.4-29.7 38.4-54.9s-16-46.7-38.4-54.9c6.2-2.3 13-3.5 20-3.5 32.2 0 58.4 26.1 58.4 58.4z" fill="#978CDB" p-id="2429"></path><path d="M740.2 522c0 32.2-26.1 58.4-58.4 58.4-7 0-13.8-1.2-20-3.5 22.4-8.2 38.4-29.6 38.4-54.9s-16-46.7-38.4-54.9c6.2-2.3 13-3.5 20-3.5 32.3 0 58.4 26.2 58.4 58.4z" fill="#DA6749" p-id="2430"></path><path d="M330.2 651.1c25.6-3.6 48.2-16.9 63.8-37.5 15.6-20.6 22.2-46 18.6-71.5-3.6-25.6-16.9-48.3-37.5-63.9-20.6-15.6-46-22.2-71.6-18.6-25.6 3.6-48.3 16.9-63.9 37.5-15.6 20.6-22.2 46-18.6 71.6 3.6 25.6 16.9 48.3 37.6 63.9 16.9 12.8 37.1 19.5 58 19.5 4.5 0 9.1-0.3 13.6-1z m-59.6-34.5c-16.4-12.3-27-30.3-29.8-50.7-2.8-20.3 2.4-40.4 14.8-56.7 12.3-16.4 30.3-27 50.7-29.8 3.6-0.5 7.2-0.7 10.7-0.7 16.5 0 32.6 5.3 46 15.5 16.4 12.3 27 30.3 29.8 50.7 2.8 20.3-2.4 40.4-14.8 56.7-12.3 16.3-30.3 26.9-50.6 29.7-20.3 2.9-40.4-2.4-56.8-14.7z" fill="#00435B" p-id="2431"></path><path d="M908.5 305.1c-0.1-0.2-0.3-0.5-0.4-0.7-4.4-8.4-9.6-16.8-15.3-25-0.1-0.1-0.1-0.1-0.1-0.2l-0.2-0.2c-0.2-0.3-0.4-0.5-0.6-0.8-27.3-41.1-61.4-77.3-101.4-107.5-47.4-35.7-100.4-61.1-157.4-75.5-55.1-13.9-111.7-16.9-168.3-9-56.5 7.9-110.1 26.4-159.3 54.8-50.9 29.5-94.9 68.4-130.6 115.8-35.7 47.4-61.1 100.3-75.4 157.4-13.9 55.2-16.9 111.8-9 168.4 7.9 56.5 26.4 110.2 54.8 159.4 29.5 50.9 68.4 94.9 115.8 130.6 35.7 26.9 74.7 48 116.1 62.8 0.1 0 0.1 0 0.2 0.1 0.2 0.1 0.5 0.2 0.9 0.3 1 0.4 1.8 0.6 2.5 0.8 0.3 0.1 0.7 0.2 1.1 0.3 10.3 3.4 20.8 5 31.2 5 30.8 0 60.6-14.3 79.8-39.9 23.7-31.4 26.7-73.9 7.9-108.3-5.7-10.5-13.2-19.8-22.3-27.6-1.7-1.5-3.5-2.9-5.2-4.2 0 0-0.1-0.1-0.2-0.1-1.7-1.2-3.4-2.5-5.3-3.7-29.9-26.4-34.4-71.9-10.4-103.9 20-26.4 54.3-37.1 85.6-26.8 10.4 7.4 20.7 13.5 31.3 18.8 12.2 6.2 24.6 11.3 37.1 15.2 25 8 50.5 11.8 75.9 11.8 77.1 0 151.9-35.8 200.2-99.6 29.3-38.8 46.5-84.9 49.9-133.2 3.1-47-6.8-93.8-28.9-135.3z m8.8 134c-3.1 44.4-19 86.8-45.9 122.5-58.9 78-161 110.5-254 80.8-11.4-3.6-22.9-8.3-34.1-14-10.1-5-19.9-11-29.9-18.1-0.8-0.6-1.6-1-2.5-1.3-39.9-13.9-83.9-0.5-109.5 33.2-14.9 19.8-21.6 44.2-19 68.7 2.6 24.4 14.2 46.8 32.7 62.8l1.2 0.9c1.6 1 3.2 2.2 4.9 3.4 1.3 1 2.7 2.1 4.1 3.3 7.3 6.3 13.3 13.7 17.8 22 15.1 27.5 12.6 61.6-6.3 86.7-20.6 27.5-56.4 38.6-89.1 27.8-0.2-0.1-0.5-0.1-0.7-0.2-0.1 0-0.2-0.1-0.3-0.1-0.1 0-0.3-0.1-0.4-0.1-0.3-0.1-0.8-0.2-0.9-0.3-0.2-0.1-0.5-0.2-0.8-0.3-0.3-0.1-0.7-0.3-1.2-0.4-39.3-14.1-76.5-34.2-110.5-59.9-45.2-34.1-82.4-76.1-110.5-124.7-27.2-47-44.8-98.1-52.3-152.1-7.6-54-4.7-108 8.5-160.6 13.7-54.5 37.9-105 72-150.2 34.1-45.2 76.1-82.4 124.7-110.5 47-27.2 98.1-44.8 152.1-52.3 54-7.6 108-4.7 160.6 8.5 54.5 13.7 105 37.9 150.3 72 38.2 28.8 70.8 63.4 96.9 102.7 0.1 0.2 0.2 0.3 0.3 0.4l0.2 0.2c0.2 0.3 0.4 0.6 0.7 0.9 5.3 7.6 10.1 15.3 14.2 23.1 0.1 0.3 0.3 0.5 0.4 0.8 20.2 38.3 29.3 81.2 26.3 124.4z" fill="#00435B" p-id="2432"></path><path d="M365.2 748.4c-37.7 0-68.4 30.7-68.4 68.4s30.7 68.4 68.4 68.4 68.4-30.7 68.4-68.4-30.7-68.4-68.4-68.4z m0 116.8c-26.7 0-48.4-21.7-48.4-48.4s21.7-48.4 48.4-48.4 48.4 21.7 48.4 48.4-21.7 48.4-48.4 48.4zM365.2 216c-37.7 0-68.4 30.7-68.4 68.4s30.7 68.4 68.4 68.4 68.4-30.7 68.4-68.4-30.7-68.4-68.4-68.4z m0 116.8c-26.7 0-48.4-21.7-48.4-48.4s21.7-48.4 48.4-48.4 48.4 21.7 48.4 48.4-21.7 48.4-48.4 48.4zM658.8 226c0-37.7-30.7-68.4-68.4-68.4S522 188.3 522 226s30.7 68.4 68.4 68.4 68.4-30.7 68.4-68.4z m-68.4 48.4c-26.7 0-48.4-21.7-48.4-48.4s21.7-48.4 48.4-48.4 48.4 21.7 48.4 48.4-21.7 48.4-48.4 48.4zM766.8 282.6c-37.7 0-68.4 30.7-68.4 68.4s30.7 68.4 68.4 68.4 68.4-30.7 68.4-68.4-30.7-68.4-68.4-68.4z m0 116.8c-26.7 0-48.4-21.7-48.4-48.4s21.7-48.4 48.4-48.4 48.4 21.7 48.4 48.4-21.7 48.4-48.4 48.4zM681.9 453.6c-37.7 0-68.4 30.7-68.4 68.4s30.7 68.4 68.4 68.4 68.4-30.7 68.4-68.4-30.7-68.4-68.4-68.4z m0 116.8c-26.7 0-48.4-21.7-48.4-48.4s21.7-48.4 48.4-48.4 48.4 21.7 48.4 48.4-21.7 48.4-48.4 48.4z" fill="#00435B" p-id="2433"></path></svg>