<?xml version="1.0" standalone="no"?><!DOCTYPE svg PUBLIC "-//W3C//DTD SVG 1.1//EN" "http://www.w3.org/Graphics/SVG/1.1/DTD/svg11.dtd"><svg t="1774809558050" class="icon" viewBox="0 0 1025 1024" version="1.1" xmlns="http://www.w3.org/2000/svg" p-id="2301" xmlns:xlink="http://www.w3.org/1999/xlink" width="64.0625" height="64"><path d="M132.30926013 933.875c-10.72979077 0-21.43850098-4.19494785-29.68083517-12.43728204-14.92473779-14.9668981-16.69546994-37.94424912-4.19494785-54.66079963l175.55539416-237.5731615-137.59006448-137.59006447C122.97075873 478.18564429 120.31466174 457.18982697 129.92720474 440.53651734c6.57700324-10.3925083 63.19825516-92.96341095 189.08884259-61.80696661 2.08693405 0.25296186 4.34250851 0.44268283 6.76672422 0.65348436 5.16463413 0.44268283 10.94059231 0.96968628 17.20139282 1.98153287 26.64529541 4.32142878 73.75940469-17.07491189 114.65487378-51.94146176 39.18797782-33.36985931 64.50522391-72.30487527 64.5052239-99.1609714 0-6.23972076-0.14756067-12.87996488-0.29512216-19.39372723-1.05400689-25.23292547-2.6560978-64.02038077 26.35017325-93.00557127 34.31846585-34.36062616 88.62090244-37.12212432 126.29110996-6.47160287 0.75888473 0.61132407 1.45452942 1.26480845 2.12909435 1.96045312l-0.02107973 0c20.25801316 19.81533032 227.91845819 227.26497382 230.08971203 229.45730823 17.87595776 17.87595776 27.72038205 41.63327326 27.76254236 66.88727929 0.02107974 25.27508579-9.8022648 48.99024179-27.63606143 66.82403925-28.85870957 28.87979014-67.8569664 27.23553892-93.57473502 26.13937171-6.0921601-0.12648093-12.75348396-0.2740416-18.97212496-0.2740416-25.40156671 0-55.77804656 17.79163714-85.45888176 50.06532926-41.86515537 45.53309893-67.64616486 104.34668609-65.43274987 130.69685934 0.92752598 8.45313574 2.6560978 23.37787354 2.97229971 25.48588733 30.3975596 123.27664993-52.00470181 179.49738016-61.49076388 185.48413906-17.05383216 10.28710793-38.19721097 7.73641049-51.9203812-5.96567916l-146.99180593-146.99180594c-8.2423342-8.2423342-8.2423342-21.56498191 0-29.8073161s21.56498191-8.2423342 29.80731609 0l146.99180593 146.99180594c6.47160288-4.19494785 66.00191364-45.02717605 42.28675764-141.53205048-0.42160309-1.93937256-2.50853632-19.4148078-3.60470351-29.63867486-3.54146348-42.11811722 29.32247296-112.08309659 76.37334218-163.24459304 26.72961602-29.04843054 68.61585114-63.68309829 116.46776542-63.68309831 6.51376318 0 13.51236868 0.14756067 20.32125319 0.29512216 26.70853547 1.11724695 47.83083454 0.80104505 62.43937043-13.82857058 9.86550486-9.86550486 15.28310083-22.97735102 15.28310083-36.95348309-0.02107974-14.01829238-5.50191577-27.19337859-15.40958093-37.12212433C874.73066038 370.46613678 653.60000696 149.65168527 647.08624378 143.39088394c-20.00505129-16.25278711-50.02316894-14.73501682-69.0374534 4.30034821-14.75609738 14.75609738-15.09337903 35.83623533-14.0182924 61.87020667 0.16864123 7.25156736 0.3162019 14.20801336 0.31620191 20.72177654 0 39.86254193-29.65975461 88.93710434-79.32456134 131.24494253-40.76898816 34.71898837-101.33222607 69.05853397-148.72037778 61.46968415-5.18571387-0.84320535-9.9287449-1.24372788-14.16585306-1.60209091-2.7404176-0.23188128-5.29111505-0.4637634-7.67317043-0.75888474-2.02369317-0.06324005-4.00522605-0.44268283-5.92351886-1.07508746-97.03187787-23.92595754-138.09598737 35.79407501-142.45957645 42.68728098l150.57542971 149.98518621c7.37804828 7.37804828 8.26341394 19.03536502 2.04477375 27.44634046L132.28818039 891.94660459l196.61445237-143.80870552c9.42282203-6.89320513 22.59790823-4.78519135 29.44895388 4.61655012s4.78519135 22.57682849-4.61655011 29.42787332l-196.78309359 143.47142304C149.57389383 931.15566214 140.95211685 933.875 132.30926013 933.875z" fill="#2c2c2c" p-id="2302"></path></svg>