<?xml version="1.0" standalone="no"?><!DOCTYPE svg PUBLIC "-//W3C//DTD SVG 1.1//EN" "http://www.w3.org/Graphics/SVG/1.1/DTD/svg11.dtd"><svg t="1774809565403" class="icon" viewBox="0 0 1025 1024" version="1.1" xmlns="http://www.w3.org/2000/svg" p-id="2459" xmlns:xlink="http://www.w3.org/1999/xlink" width="64.0625" height="64"><path d="M586.1115579 710.52791675l-35.23794828 225.41100252c-1.11866502 8.38998769-5.31365887 15.94097661-10.906984 21.53430174-6.99165641 6.99165641-17.05964163 11.46631651-27.68695937 11.4663165-19.57663793 0-36.35661331-13.98331282-39.15327587-33.55995074l-41.11093966-273.79326486L249.67305165 662.14565443C231.77441126 662.14565443 216.1131009 649.84033915 211.35877455 632.78069751c-2.51699631-11.46631651-19.57663793-103.47651481 84.17954314-166.40142245 1.67799754-1.11866502 3.07632882-2.51699631 5.0339926-3.91532759 3.63566133-3.07632882 7.83065517-6.71199015 12.86464779-10.06798522 20.4156367-14.82231158 37.75494459-60.12824509 41.67027217-110.4681712 3.91532759-48.10259607-5.03399261-90.61186702-22.93263301-108.51050743-4.19499385-4.19499385-8.66965394-8.66965394-13.14431404-12.58498153-17.33930789-16.22064286-44.18726848-40.83127341-44.18726848-78.86588424 0-45.30593351 34.11928326-83.34054436 79.42521676-87.81520447 0.83899877-0.27966625 1.67799754 0 2.79666256 0 26.56829434-0.27966625 301.75989047-0.27966625 304.55655304-0.27966625 23.49196553 0 46.14493228 9.22898646 62.92490766 26.00896182s26.00896183 38.87360962 25.72929557 62.6452414c0 38.03461085-26.8479606 63.20457391-44.746601 79.42521676-3.91532759 3.91532759-8.66965394 8.11032143-12.86464778 12.30531528-16.77997538 16.77997538-25.16996306 48.66192859-23.49196553 90.05253451 2.51699631 57.89091504 24.33096429 113.82416629 43.34826972 130.04480915 6.15265763 5.03399261 17.05964163 13.70364655 18.73763917 14.82231157 101.79851727 61.52657637 84.45920938 153.25710842 82.22187933 163.88442616-4.4746601 17.89864041-20.4156367 30.48362193-38.31427709 30.48362193l-180.66440154 0-8.38998769 46.98393104z" fill="#2c2c2c" p-id="2460"></path></svg>