<?xml version="1.0" standalone="no"?><!DOCTYPE svg PUBLIC "-//W3C//DTD SVG 1.1//EN" "http://www.w3.org/Graphics/SVG/1.1/DTD/svg11.dtd"><svg t="1774705600445" class="icon" viewBox="0 0 1024 1024" version="1.1" xmlns="http://www.w3.org/2000/svg" p-id="4941" xmlns:xlink="http://www.w3.org/1999/xlink" width="64" height="64"><path d="M511.98557979 962C456.32351972 962 402.2689625 951.04486075 351.42189277 929.33273604 302.27511904 908.45865107 258.20163916 878.5427917 220.32495459 840.41310342 182.44827089 802.28846357 152.72196347 757.86335528 131.91969307 708.42892256 110.41272881 657.24898643 99.50000029 602.86959511 99.50000029 546.81411904 99.50000029 479.73408682 115.83962597 413.14880411 146.7170167 354.15008018 176.57122256 297.15180489 219.93875176 247.10650771 272.16637051 209.4299167 286.67404268 198.96447852 306.8355667 202.35577607 317.20410107 216.9293917 327.56887461 231.49795977 324.26232911 251.75613096 309.75465693 262.16351387 265.61722783 294.08613154 228.99068721 336.28234854 203.823575 384.39030166 177.40882988 434.82559062 164.02214902 489.46118925 164.02214902 546.81411904 164.02214902 640.38337403 200.22863223 728.36147041 265.97082852 794.50375098 331.67791778 860.67127636 419.05497852 897.11983057 511.98557979 897.11983057 604.88232646 897.11983057 692.28822675 860.67127636 758.03042393 794.50375098 823.77136777 728.36147041 859.94901143 640.38337403 859.94901143 546.81411904 859.94901143 489.52555771 846.59117012 434.79151279 820.14256777 384.39030166 794.97545732 336.31263916 758.31882295 294.08613154 714.18264893 262.22788057 699.70381631 251.81923818 696.33332158 231.56232646 706.73194971 216.9937584 717.135592 202.42014277 737.26200898 198.99350791 751.7408416 209.49428604 803.99855146 247.17087705 847.42877744 297.21617158 877.24912783 354.21318477 908.16037403 413.21190869 924.49999971 479.80350283 924.49999971 546.8784875 924.49999971 602.93396357 913.58727119 657.31335488 892.04519727 708.52736709 871.27803653 757.96180068 841.52288955 802.38690723 803.64495166 840.51154795 765.76826709 878.63618955 721.69102637 908.52302041 672.54926768 929.49554727 621.66834336 951.07515137 567.6476416 962 511.98557979 962L511.98557979 962ZM521.67825898 511.46486387C503.86404307 511.46486387 489.42032011 496.98969278 489.42032011 479.02477959L489.42032011 94.47037578C489.42032011 76.57361651 503.86404307 62 521.67825898 62 539.49247666 62 553.9713084 76.57361651 553.9713084 94.47037578L553.9713084 479.02477959C553.9713084 496.98969278 539.49247666 511.46486387 521.67825898 511.46486387L521.67825898 511.46486387Z" fill="#2c2c2c" p-id="4942"></path></svg>