<?xml version="1.0" standalone="no"?><!DOCTYPE svg PUBLIC "-//W3C//DTD SVG 1.1//EN" "http://www.w3.org/Graphics/SVG/1.1/DTD/svg11.dtd"><svg t="1774789452614" class="icon" viewBox="0 0 1024 1024" version="1.1" xmlns="http://www.w3.org/2000/svg" p-id="1835" xmlns:xlink="http://www.w3.org/1999/xlink" width="64" height="64"><path d="M850.13390222 556.34830222c1.82044445-14.56355555 3.18464-29.35352889 3.18464-44.37105777s-1.36533333-29.80750222-3.18464-44.37105778l96.25144889-75.31747556c8.64711111-6.82666667 11.15022222-19.11352889 5.46133334-29.12597333l-91.01767112-157.68917333c-5.68888889-9.78488889-17.52064-13.87975111-27.76064-9.7848889l-113.31811555 45.7375289c-23.43708445-17.97688889-49.14972445-33.22083555-76.91036445-44.8261689l-17.06552888-120.59989333c-2.048-10.69397333-11.37664-19.11352889-22.75555556-19.11352889l-182.03761778 0c-11.37664 0-20.70641778 8.41955555-22.52686222 19.11352889l-17.06552889 120.59989333c-27.76064 11.60533333-53.47441778 26.62286222-76.91036445 44.8261689l-113.31811555-45.7375289c-10.24-3.86844445-22.07175111 0-27.76064 9.7848889l-91.01767111 157.68917333c-5.68888889 9.78488889-3.18577778 22.07175111 5.46133333 29.12597333l96.02503111 75.31747556c-1.82044445 14.56355555-3.18577778 29.35352889-3.18577778 44.37105778 0 15.01866667 1.36533333 29.80750222 3.18577778 44.37105777l-96.02503111 75.31747556c-8.64711111 6.82666667-11.15022222 19.11352889-5.46133333 29.12597333l91.01767111 157.68917334c5.68888889 9.78488889 17.52064 13.87975111 27.76064 9.78488888l113.31811555-45.73752888c23.43708445 17.97688889 49.14972445 33.22083555 76.91036445 44.82616888l17.06552889 120.59989334c1.82044445 10.69397333 11.15022222 19.11352889 22.52686222 19.11352888l182.03761778 0c11.37664 0 20.70641778-8.41955555 22.52686222-19.11352888l17.06552889-120.59989334c27.76064-11.60533333 53.47441778-26.62286222 76.91036445-44.82616888l113.31811555 45.73752888c10.24 3.86844445 22.07175111 0 27.76064-9.78488888l91.01767111-157.68917334c5.68888889-9.78488889 3.18577778-22.07175111-5.46133333-29.12597333l-96.02389333-75.31747556zM512 671.25816889c-88.05944889 0-159.28206222-71.22261333-159.28206222-159.28206222s71.22261333-159.28206222 159.28206222-159.28206222 159.28206222 71.22261333 159.28206222 159.28206222-71.22261333 159.28206222-159.28206222 159.28206222z" fill="#2c2c2c" p-id="1836"></path></svg>