<?xml version="1.0" standalone="no"?><!DOCTYPE svg PUBLIC "-//W3C//DTD SVG 1.1//EN" "http://www.w3.org/Graphics/SVG/1.1/DTD/svg11.dtd"><svg t="1774714641921" class="icon" viewBox="0 0 1024 1024" version="1.1" xmlns="http://www.w3.org/2000/svg" p-id="1805" xmlns:xlink="http://www.w3.org/1999/xlink" width="64" height="64"><path d="M268 511.8c0-134.6 109.4-244 244-244 41.1 0 80.1 10.2 113.9 28.5l59.4-59.4c-50-31.7-109.4-50.4-173.2-50.4-179.7 0-325.3 145.6-325.3 325.3h-122l162.7 162.7L390 511.8H268z m528.7-162.7L634 511.8h122c0 134.6-109.4 244-244 244-41.1 0-80.1-10.2-113.9-28.5l-59.4 59.4c50 31.7 109.4 50.4 173.2 50.4 179.7 0 325.3-145.6 325.3-325.3h122L796.7 349.1z" fill="#2c2c2c" p-id="1806"></path></svg>